<svg width="24" height="24" viewBox="0 0 24 24" fill="none" xmlns="http://www.w3.org/2000/svg">
<path fill-rule="evenodd" clip-rule="evenodd" d="M17.8201 13.04C18.7001 13.35 19.4601 13.82 20.0901 14.47H20.1101C22.0913 16.5195 22.0627 19.5121 22.0602 19.7756C22.0601 19.782 22.0601 19.7869 22.0601 19.79C22.0501 20.02 21.9401 20.23 21.7501 20.37C21.7101 20.4 19.0701 22.28 15.2601 22.28C13.6501 22.28 11.8301 21.93 9.91008 20.98L11.1001 19.88C15.7101 21.91 19.4501 20.03 20.5501 19.36C20.5001 18.58 20.2501 16.76 19.0201 15.5C18.1301 14.58 16.8701 14.12 15.2701 14.12C13.6701 14.12 12.4101 14.59 11.5201 15.5C11.4701 15.55 11.4001 15.64 11.4001 15.64L10.3001 14.62C10.3121 14.605 10.3241 14.589 10.3364 14.5727C10.365 14.5348 10.3951 14.495 10.4301 14.46C11.0601 13.81 11.8201 13.34 12.7001 13.03C11.6601 12.25 10.9801 10.99 10.9801 9.66C10.9801 8.33 11.6201 7.16 12.5901 6.38V3.99C12.5901 3.72 12.3601 3.49 12.0901 3.49H8.12008V7.29C8.12008 8.36 7.25008 9.24 6.17008 9.24H3.58008V15.41H2.08008V9.01C2.08008 8.51 2.25008 8.02 2.56008 7.62L6.40008 2.76C6.78008 2.28 7.35008 2 7.97008 2H12.0901C13.1901 2 14.0901 2.9 14.0901 4V5.62C14.4601 5.52 14.8501 5.44 15.2601 5.44C17.6201 5.44 19.5401 7.34 19.5401 9.67C19.5401 11.05 18.8601 12.27 17.8201 13.04ZM6.16008 7.75C6.41008 7.75 6.61008 7.55 6.61008 7.3V4.92L4.37008 7.75H6.16008ZM12.4701 9.67C12.4701 11.17 13.7201 12.4 15.2501 12.4C16.7801 12.4 18.0301 11.17 18.0301 9.67C18.0301 8.17 16.7801 6.94 15.2501 6.94C13.7201 6.94 12.4701 8.17 12.4701 9.67Z" fill="#191E26"></path>
<path d="M6.87 13.45L10.65 16.95H10.66C10.81 17.09 10.9 17.29 10.9 17.5C10.9 17.71 10.81 17.91 10.66 18.05L6.7 21.7C6.55 21.83 6.37 21.9 6.19 21.9C5.99 21.9 5.79 21.82 5.64 21.66C5.36 21.35 5.38 20.88 5.68 20.6L8.17 18.3H2.75C2.34 18.3 2 17.96 2 17.55C2 17.14 2.34 16.8 2.75 16.8H8.28L5.85 14.55C5.55 14.27 5.53 13.79 5.81 13.49C6.09 13.19 6.57 13.17 6.87 13.45Z" fill="#191E26"></path>
</svg>