<svg width="24" height="24" viewBox="0 0 24 24" fill="none" xmlns="http://www.w3.org/2000/svg">
<path d="M12 5.25C12.4142 5.25 12.75 5.58579 12.75 6V10.7002L16.8213 8.35059C17.18 8.14352 17.6386 8.2663 17.8457 8.625C18.0528 8.98367 17.9299 9.44227 17.5713 9.64941L13.5 11.999L17.5713 14.3506C17.9299 14.5577 18.0528 15.0163 17.8457 15.375C17.6386 15.7337 17.18 15.8565 16.8213 15.6494L12.75 13.2988V18C12.75 18.4142 12.4142 18.75 12 18.75C11.5858 18.75 11.25 18.4142 11.25 18V13.2988L7.17872 15.6494C6.82001 15.8565 6.36139 15.7337 6.1543 15.375C5.94723 15.0163 6.07012 14.5577 6.42872 14.3506L10.5 11.999L6.42872 9.64941C6.07012 9.44227 5.94724 8.98367 6.1543 8.625C6.3614 8.2663 6.82 8.14352 7.17872 8.35059L11.25 10.7002V6C11.25 5.58579 11.5858 5.25 12 5.25Z" fill="#191E26"></path>
</svg>