<svg width="24" height="24" viewBox="0 0 24 24" fill="none" xmlns="http://www.w3.org/2000/svg">
<path fill-rule="evenodd" clip-rule="evenodd" d="M12 3.53846C7.32682 3.53846 3.53846 7.32682 3.53846 12C3.53846 16.6732 7.32682 20.4615 12 20.4615C12.4248 20.4615 12.7692 20.8059 12.7692 21.2308C12.7692 21.6556 12.4248 22 12 22C6.47715 22 2 17.5228 2 12C2 6.47715 6.47715 2 12 2C17.5228 2 22 6.47715 22 12L22 14.5042C22 15.382 21.9541 16.7351 20.9915 17.6031C19.6696 18.795 17.9588 18.3125 16.9961 17.4116C16.5051 16.9521 16.2877 16.3597 16.192 15.797C15.1571 16.9388 13.6622 17.656 11.9999 17.656C8.87608 17.656 6.34375 15.1236 6.34375 11.9999C6.34375 8.87608 8.87608 6.34375 11.9999 6.34375C15.1236 6.34375 17.656 8.87608 17.656 11.9999C17.656 11.9999 17.656 11.9998 17.656 11.9999L17.6561 14.7218C17.6561 15.5144 17.7527 16.0125 18.0474 16.2883C18.6446 16.8472 19.4314 16.9383 19.9612 16.4605C20.3553 16.1052 20.4616 15.4532 20.4616 14.5042V12.0065C20.4615 12.0043 20.4615 12.0022 20.4615 12C20.4615 7.32682 16.6732 3.53846 12 3.53846ZM11.9999 7.88221C9.72575 7.88221 7.88221 9.72575 7.88221 11.9999C7.88221 14.274 9.72575 16.1175 11.9999 16.1175C14.274 16.1175 16.1175 14.274 16.1175 11.9999C16.1175 9.72575 14.274 7.88221 11.9999 7.88221Z" fill="#191E26"></path>
</svg>