<svg xmlns="http://www.w3.org/2000/svg" width="24" height="24" viewBox="0 0 24 24" fill="none">
  <path fill="#191E26" fill-rule="evenodd" d="M18.04 6.55c.9.19 1.37.88 1.37 2.15 0 1.2-.43 2.44-1.06 3.07l-.03.03a.87.87 0 00-.26.62v.76a.87.87 0 00.49.76l1.49.69c.08.03.15.08.21.14.16.15.25.36.25.6v.3c0 .15-.11.26-.25.26h-.84c.2.47.32.98.34 1.5h.5c.97 0 1.75-.78 1.75-1.75v-.32c0-.87-.5-1.71-1.33-2.1l-1.1-.5v-.1c.89-1 1.34-2.58 1.34-3.96 0-.93-.2-1.91-.87-2.66A3.31 3.31 0 0017.4 5c.3.5.5 1.02.65 1.55zM7.87 5.02A4.57 4.57 0 007.48 5c-.92 0-1.87.28-2.55 1.09a4.06 4.06 0 00-.84 2.68c0 .8.14 1.58.39 2.28.21.6.53 1.2.97 1.68v.04l-1.1.5A2.3 2.3 0 003 15.37v.3c0 .98.78 1.76 1.75 1.76h.75c.02-.52.14-1.03.34-1.5H4.75a.25.25 0 01-.25-.25v-.32a.8.8 0 01.46-.72l1.5-.67a.87.87 0 00.5-.78v-.71a.89.89 0 00-.32-.68C6.02 11.2 5.6 10 5.6 8.77c0-1.43.57-2.17 1.65-2.26.14-.51.34-1.02.63-1.5zm2.59 1.62c-.28.5-.43 1.16-.43 2a7.3 7.3 0 010 0c0-.84.15-1.5.43-2zm-1.9 10.79c.03-.2.12-.4.25-.55.1-.12.22-.22.37-.28l2.03-.91a1.19 1.19 0 00.67-1.05c0 .46-.26.87-.67 1.05l-2.03.9c-.34.16-.57.47-.62.84zm7.51-.85l-2.02-.93 2.02.93z" clip-rule="evenodd"></path>
  <path fill="#191E26" fill-rule="evenodd" d="M14.75 13.53c1.17-1.21 1.8-3.27 1.8-5.1 0-1.18-.26-2.34-1.03-3.21A3.92 3.92 0 0012.48 4c-1.13 0-2.24.35-3.03 1.28-.75.88-1 2.05-1 3.25 0 1 .18 2 .5 2.87.28.8.72 1.6 1.32 2.2v.59l-1.77.79A2.55 2.55 0 007 17.32v.5c0 .97.78 1.75 1.75 1.75h7.5c.97 0 1.75-.78 1.75-1.75v-.5c0-.99-.56-1.92-1.49-2.35l-1.76-.81v-.63zm-3-.27a1.2 1.2 0 01.02.2v.95l-.01.18c-.06.38-.3.7-.65.86l-2 .9c-.12.05-.22.13-.31.22a1.08 1.08 0 00-.3.74v.51c0 .14.11.25.25.25h7.5c.14 0 .25-.11.25-.25v-.5a1.1 1.1 0 00-.29-.75c-.09-.1-.2-.18-.32-.24l-2-.91a1.13 1.13 0 01-.64-1.04v-.99a1.18 1.18 0 01.35-.83c.85-.83 1.45-2.5 1.45-4.12 0-2.01-.87-2.94-2.57-2.94-1.65 0-2.53.98-2.53 3.03 0 1.65.6 3.3 1.45 4.08.19.17.31.4.35.65z" clip-rule="evenodd"></path>
</svg>