<svg xmlns="http://www.w3.org/2000/svg" width="24" height="24" fill="none" viewBox="0 0 24 24"><path fill="#191e26" fill-rule="evenodd" d="M9 1.25c1.226 0 2.316.589 3 1.499a3.745 3.745 0 0 1 3-1.499h6c.966 0 1.75.784 1.75 1.75v3.5h-1.5V3a.25.25 0 0 0-.25-.25h-6A2.25 2.25 0 0 0 12.75 5v13.999A3.734 3.734 0 0 1 15 18.25h6a.25.25 0 0 0 .25-.25v-3.25h1.5V18A1.75 1.75 0 0 1 21 19.75h-6A2.25 2.25 0 0 0 12.75 22a.75.75 0 0 1-1.5 0A2.25 2.25 0 0 0 9 19.75H3A1.75 1.75 0 0 1 1.25 18V3c0-.966.784-1.75 1.75-1.75h6Zm-6 1.5a.25.25 0 0 0-.25.25v15c0 .138.112.25.25.25h6c.844 0 1.623.278 2.25.749V5A2.25 2.25 0 0 0 9 2.75H3Z" clip-rule="evenodd"></path><path fill="#191E26" d="M22.512 8.43a.75.75 0 0 1 .976 1.14l-4.667 4a.75.75 0 0 1-.975 0l-2.334-2a.75.75 0 0 1 .976-1.14l1.845 1.582 4.179-3.581Z"></path></svg>