<svg width="24" height="24" viewBox="0 0 24 24" fill="none" xmlns="http://www.w3.org/2000/svg">
<path d="M10.7612 18.1381C11.9728 16.9265 11.9728 14.9621 10.7612 13.7505C9.54959 12.5389 7.5852 12.5389 6.3736 13.7505C5.78124 14.3429 5.63676 14.8025 5.48696 15.5408C5.46652 15.6415 5.4462 15.7469 5.42489 15.8573C5.27849 16.6163 5.08563 17.6162 4.49248 18.9964C4.47423 19.0389 4.45404 19.08 4.43297 19.1192C4.88025 19.2197 5.5922 19.2594 6.43462 19.2165C7.33345 19.1708 8.30629 19.0352 9.13066 18.8278C9.54273 18.7241 9.90399 18.6059 10.1942 18.4789C10.4937 18.3478 10.6727 18.2266 10.7612 18.1381Z" stroke="#191E26" stroke-width="1.5" stroke-linecap="round" stroke-linejoin="round"></path>
<path fill-rule="evenodd" clip-rule="evenodd" d="M12.3852 15.4189L19.6208 8.95157C20.5543 8.11727 20.8133 6.76103 20.2535 5.64128C19.9851 5.10449 19.5497 4.66911 19.0129 4.40072C17.8931 3.84081 16.537 4.10049 15.7033 5.0345L9.33501 12.1685C9.86245 12.2751 10.3719 12.4928 10.8258 12.8218C10.8166 12.8085 10.8074 12.7951 10.7983 12.7817L16.8223 6.0334C17.2052 5.60449 17.8279 5.48524 18.3421 5.74236C18.5886 5.86558 18.7885 6.06554 18.9118 6.3121C19.1691 6.82676 19.0499 7.44999 18.6212 7.83319L11.8778 13.8605C11.8345 13.8313 11.7919 13.8013 11.7498 13.7705C12.0939 14.2728 12.3057 14.8385 12.3852 15.4189Z" fill="#191E26"></path>
<circle cx="10.25" cy="4.25" r="0.75" fill="#191E26" stroke="#191E26"></circle>
<path d="M4.2586 4.39658C4.32501 4.14991 4.67499 4.14991 4.7414 4.39658L5.31111 6.51249C5.33427 6.59852 5.40148 6.66573 5.48751 6.68889L7.60342 7.2586C7.85009 7.32501 7.85009 7.67499 7.60342 7.7414L5.48751 8.31111C5.40148 8.33427 5.33427 8.40148 5.31111 8.48751L4.7414 10.6034C4.67499 10.8501 4.32501 10.8501 4.2586 10.6034L3.68889 8.48751C3.66573 8.40148 3.59852 8.33427 3.51249 8.31111L1.39658 7.7414C1.14991 7.67499 1.14991 7.32501 1.39658 7.2586L3.51249 6.68889C3.59852 6.66573 3.66573 6.59852 3.68889 6.51249L4.2586 4.39658Z" fill="#191E26"></path>
<path d="M18.2586 13.3966C18.325 13.1499 18.675 13.1499 18.7414 13.3966L19.3111 15.5125C19.3343 15.5985 19.4015 15.6657 19.4875 15.6889L21.6034 16.2586C21.8501 16.325 21.8501 16.675 21.6034 16.7414L19.4875 17.3111C19.4015 17.3343 19.3343 17.4015 19.3111 17.4875L18.7414 19.6034C18.675 19.8501 18.325 19.8501 18.2586 19.6034L17.6889 17.4875C17.6657 17.4015 17.5985 17.3343 17.5125 17.3111L15.3966 16.7414C15.1499 16.675 15.1499 16.325 15.3966 16.2586L17.5125 15.6889C17.5985 15.6657 17.6657 15.5985 17.6889 15.5125L18.2586 13.3966Z" fill="#191E26"></path>
</svg>