<svg width="24" height="24" viewBox="0 0 24 24" fill="none" xmlns="http://www.w3.org/2000/svg">
<path fill-rule="evenodd" clip-rule="evenodd" d="M20.5429 10.488C21.2479 11.067 21.7149 12.101 21.7149 13.317C21.7149 14.624 21.1749 15.72 20.3759 16.264C20.6049 16.616 20.7429 17.026 20.7429 17.48V18.945C20.7429 20.383 19.5739 21.553 18.1359 21.553H5.86091C4.42291 21.553 3.25391 20.383 3.25391 18.945V17.48C3.25391 17.026 3.39191 16.615 3.62091 16.264C2.82491 15.719 2.28491 14.624 2.28491 13.317C2.28491 12.076 2.77191 11.026 3.50191 10.455C3.34491 10.175 3.25391 9.84895 3.25391 9.47195V8.51395C3.25391 4.88695 6.06391 2.44995 10.2459 2.44995H13.8419C18.0249 2.44995 20.8339 4.88695 20.8339 8.51395L20.8069 9.47195C20.8069 9.86395 20.7089 10.201 20.5429 10.488ZM3.78491 13.317C3.78491 14.359 4.29491 15.137 4.75191 15.137V15.138H5.86191H11.4409L6.70991 11.496H5.72791H4.75191C4.29491 11.496 3.78491 12.275 3.78491 13.317ZM9.16891 11.495H14.6679L11.9659 13.648L9.16891 11.495ZM18.3599 11.495H17.0739L12.5039 15.136H18.1379H19.2489C19.7049 15.136 20.2159 14.358 20.2159 13.316C20.2159 12.274 19.7049 11.495 19.2489 11.495H18.3599ZM4.75391 8.51395C4.75391 5.14495 7.71191 3.94995 10.2459 3.94995H13.8419C16.2339 3.94995 19.0029 5.01495 19.3069 7.96795V9.47195C19.3069 9.66795 19.3069 9.99495 18.3599 9.99495H5.72691C4.75391 9.99495 4.75391 9.64095 4.75391 9.47195V8.51395ZM18.1369 20.053C18.7469 20.053 19.2439 19.556 19.2439 18.945V17.48C19.2439 16.901 18.6699 16.637 18.1369 16.637H5.86191C5.32891 16.637 4.75491 16.901 4.75491 17.48V17.912V18.945C4.75491 19.556 5.25091 20.053 5.86191 20.053H18.1369Z" fill="#191E26"></path>
</svg>