<svg width="24" height="24" viewBox="0 0 24 24" fill="none" xmlns="http://www.w3.org/2000/svg">
<path fill-rule="evenodd" clip-rule="evenodd" d="M2 12C2 17.5228 6.47715 22 12 22C17.5229 22 22 17.5228 22 12C22 6.47717 17.5229 2 12 2C6.47715 2 2 6.47717 2 12ZM20.5 12C20.5 16.6944 16.6944 20.5 12 20.5C7.30558 20.5 3.5 16.6944 3.5 12C3.5 7.3056 7.30558 3.5 12 3.5C16.6944 3.5 20.5 7.3056 20.5 12ZM10.4811 15.5416C10.7709 15.8194 11.2287 15.8195 11.5185 15.5419C11.5225 15.5381 11.5264 15.5342 11.5303 15.5303L16.5303 10.5303C16.8232 10.2374 16.8232 9.76257 16.5303 9.46967C16.2374 9.17676 15.7626 9.17676 15.4697 9.46967L11 13.9393L9.03033 11.9697C8.32322 11.2625 7.26256 12.3232 7.96967 13.0303L10.4643 15.525M10.4811 15.5416C10.4773 15.5379 10.4735 15.5341 10.4697 15.5303L10.4811 15.5416Z" fill="#191E26"></path>
</svg>