<svg width="24" height="24" viewBox="0 0 24 24" fill="none" xmlns="http://www.w3.org/2000/svg">
  <path fill-rule="evenodd" clip-rule="evenodd" d="M11.9956 19.9954C16.4139 19.9954 19.9956 16.4137 19.9956 11.9954C19.9956 7.57714 16.4139 3.99542 11.9956 3.99542C7.57733 3.99542 3.99561 7.57714 3.99561 11.9954C3.99561 16.4137 7.57733 19.9954 11.9956 19.9954ZM13.7623 9.16862C14.0551 8.87589 14.5297 8.87589 14.8224 9.16862C15.1151 9.46135 15.1151 9.93595 14.8224 10.2287L13.0556 11.9954L14.8224 13.7622C15.1151 14.0549 15.1151 14.5295 14.8224 14.8223C14.5297 15.115 14.0551 15.115 13.7623 14.8223L11.9956 13.0555L10.2288 14.8223C9.93609 15.115 9.46148 15.115 9.16876 14.8223C8.87603 14.5295 8.87603 14.0549 9.16876 13.7622L10.9355 11.9954L9.16877 10.2287C8.87604 9.93596 8.87604 9.46135 9.16877 9.16862C9.46149 8.8759 9.9361 8.8759 10.2288 9.16862L11.9956 10.9354L13.7623 9.16862Z" fill="#191E26"></path>
</svg>