<svg xmlns="http://www.w3.org/2000/svg" xmlns:xlink="http://www.w3.org/1999/xlink" width="24" height="24" viewBox="0 0 24 24">
  <defs>
    <path id="icon-clock-a" d="M11.125,6.316 C11.125,8.201 11.125,10.086 11.125,11.971 C11.125,12.696 12.138,13.375 12.588,13.825 C13.328,14.565 14.068,15.305 14.809,16.047 C15.608,16.845 16.845,15.608 16.047,14.809 C15.476,14.238 14.904,13.666 14.333,13.095 C13.94,12.702 13.547,12.309 13.154,11.917 C13.008,11.771 12.861,11.624 12.715,11.477 C12.4,11.162 12.875,12.295 12.875,11.888 C12.875,10.031 12.875,8.173 12.875,6.316 C12.875,5.188 11.125,5.188 11.125,6.316 Z M12,21.801 C6.596,21.801 2.2,17.405 2.2,12 C2.2,6.596 6.596,2.2 12,2.2 C17.404,2.2 21.801,6.596 21.801,12 C21.801,17.405 17.405,21.801 12,21.801 Z M12,3.7 C7.423,3.7 3.7,7.424 3.7,12 C3.7,16.577 7.424,20.301 12,20.301 C16.577,20.301 20.301,16.577 20.301,12 C20.301,7.424 16.577,3.7 12,3.7 Z"></path>
  </defs>
  <g fill="none" fill-rule="evenodd">
    <use fill="#191E26" fill-rule="nonzero" xlink:href="#icon-clock-a"></use>
  </g>
</svg>