<svg width="24" height="24" viewBox="0 0 24 24" fill="none" xmlns="http://www.w3.org/2000/svg"><path fill-rule="evenodd" clip-rule="evenodd" d="M10.8382 3.00001L7.02387 3.00002C4.8174 3.00003 3.02766 4.78673 3.02389 6.9932L3.00684 16.9932C3.00307 19.205 4.79503 21 7.00684 21L17 21C19.2091 21 21 19.2091 21 17V8.76925C21 7.1124 19.6569 5.76925 18 5.76925L14.3859 5.76923C14.1966 5.76923 14.0234 5.66223 13.9387 5.49284L13.5215 4.65836C13.0133 3.64201 11.9745 3 10.8382 3.00001ZM7.02388 4.50002L10.8382 4.50001C11.4064 4.50001 11.9258 4.82101 12.1799 5.32919L12.5971 6.16366C12.9359 6.84122 13.6284 7.26922 14.3859 7.26923L18 7.26925C18.8284 7.26925 19.5 7.94082 19.5 8.76925V9.51991H4.51959L4.52389 6.99576C4.52624 5.61672 5.64484 4.50003 7.02388 4.50002ZM4.51703 11.0199L4.50684 16.9957C4.50448 18.3781 5.62446 19.5 7.00684 19.5L17 19.5C18.3807 19.5 19.5 18.3807 19.5 17V11.0199H4.51703Z" fill="#191E26"></path></svg>