<svg width="24" height="24" viewBox="0 0 24 24" fill="none" xmlns="http://www.w3.org/2000/svg"><path fill-rule="evenodd" clip-rule="evenodd" d="M10.5146 18.2495C8.68903 17.0115 5.64073 14.5837 4.07388 11.3159C3.7088 10.6811 3.5 9.94489 3.5 9.15996C3.5 6.76777 5.43933 4.82852 7.83161 4.82852C9.12806 4.82852 10.2915 5.39806 11.0853 6.30057C11.5054 6.77818 11.822 7.34903 12 7.97808C12.178 7.34904 12.4946 6.7782 12.9148 6.3006C13.7086 5.39816 14.872 4.82867 16.1684 4.82867C18.5606 4.82867 20.5 6.76792 20.5 9.1601C20.5 10.0149 20.2523 10.8119 19.8249 11.4832C18.2371 14.6647 15.2728 17.0299 13.4838 18.2474C13.3722 18.3234 13.2652 18.3948 13.1634 18.4617L13.1599 18.4641C12.4557 18.9268 12.0008 19.1715 12.0008 19.1715L11.9993 18.4641L11.9993 19.1715C11.9993 19.1715 11.5444 18.9276 10.84 18.4664L10.8364 18.4641C10.7342 18.3971 10.6267 18.3256 10.5146 18.2495ZM11.2899 20.4931V20.4931L11.287 20.4916L11.2813 20.4885L11.264 20.479C11.2497 20.4713 11.2302 20.4605 11.2057 20.4469C11.1567 20.4196 11.0877 20.3806 11.0009 20.3302C10.8274 20.2294 10.5822 20.0827 10.2829 19.8922C9.68544 19.5119 8.86674 18.9535 7.9705 18.234C6.21038 16.8209 4.04973 14.7064 2.74461 12.0128C2.27014 11.1681 2 10.1934 2 9.15996C2 5.93929 4.61096 3.32852 7.83161 3.32852C9.46592 3.32852 10.9419 4.00032 12.0001 5.08218C13.0582 4.00041 14.5341 3.32867 16.1684 3.32867C19.389 3.32867 22 5.93943 22 9.1601C22 10.2796 21.6831 11.3294 21.1335 12.2197C19.8062 14.8427 17.684 16.9028 15.9598 18.2822C15.0801 18.986 14.2793 19.5321 13.6955 19.9041C13.4031 20.0904 13.1637 20.2339 12.9943 20.3326C12.9095 20.3819 12.8422 20.42 12.7944 20.4468C12.7704 20.4601 12.7514 20.4707 12.7375 20.4783L12.7205 20.4876L12.7149 20.4906L12.7129 20.4917L12.7117 20.4916V20.4916C12.4894 20.6111 12.2445 20.6716 12.0003 20.6715C11.7566 20.6717 11.5119 20.6121 11.2899 20.4931Z" fill="#191E26"></path></svg>