<svg width="24" height="24" viewBox="0 0 24 24" fill="none" xmlns="http://www.w3.org/2000/svg"><path fill-rule="evenodd" clip-rule="evenodd" d="M18.333 13.1441C18.4617 13.1065 18.5931 13.0703 18.7272 13.0357C18.9002 12.991 19.0777 12.9488 19.2599 12.909C19.3288 12.8939 19.3984 12.8791 19.4687 12.8647C19.7448 12.8647 19.9687 12.6408 19.9687 12.3647C19.9687 12.0886 19.7448 11.8647 19.4687 11.8647C19.3966 11.8503 19.3251 11.8355 19.2545 11.8203C19.0732 11.7814 18.8968 11.7401 18.725 11.6962C18.5909 11.6619 18.4597 11.6261 18.3313 11.5888C15.5309 10.7738 14.0561 9.20671 13.2491 6.47642C13.2199 6.37758 13.1916 6.27722 13.1641 6.17532C13.1579 6.15248 13.1518 6.12957 13.1457 6.10658L13.0623 5.77502C13.041 5.68602 13.0202 5.59592 13 5.50469C12.9952 5.4829 12.9904 5.46104 12.9856 5.43912C12.971 5.37201 12.9567 5.3043 12.9427 5.23598C12.8848 5.02382 12.6992 4.86471 12.4687 4.86471C12.2365 4.86471 12.05 5.02621 11.9937 5.24074C11.9804 5.30744 11.9668 5.37353 11.9528 5.43903C11.9478 5.4628 11.9427 5.48649 11.9376 5.51011C11.8929 5.71572 11.8454 5.91537 11.7948 6.10922C11.762 6.23472 11.7279 6.35779 11.6925 6.47847C11.6716 6.5499 11.6502 6.62048 11.6283 6.69024C11.6276 6.69247 11.6269 6.69469 11.6262 6.69691C10.7939 9.34476 9.27803 10.8008 6.60479 11.5849C6.47594 11.6227 6.3444 11.6589 6.21011 11.6936C6.03718 11.7383 5.85969 11.7806 5.67755 11.8204C5.60861 11.8355 5.53899 11.8503 5.4687 11.8647C5.19258 11.8647 4.9687 12.0886 4.9687 12.3647C4.9687 12.6408 5.19258 12.8647 5.4687 12.8647C5.54085 12.8791 5.61226 12.8939 5.68293 12.9091C5.86433 12.9479 6.04089 12.9892 6.21275 13.0329C6.34731 13.0671 6.479 13.1028 6.60786 13.1401C9.41671 13.9525 10.8862 15.5022 11.6896 18.2453C11.7184 18.3433 11.7462 18.4429 11.7733 18.544C11.7801 18.5695 11.7868 18.5951 11.7936 18.6208C11.8117 18.6045 11.8531 18.9527 11.8726 18.9376C11.8961 19.0363 11.9189 19.1364 11.941 19.2379C11.944 19.2514 11.9469 19.265 11.9498 19.2785C11.9622 19.336 11.9744 19.394 11.9864 19.4524C12.0292 19.6851 12.2236 19.8647 12.4687 19.8647C12.7047 19.8647 12.8934 19.6977 12.9459 19.4777C12.96 19.4072 12.9744 19.3372 12.9892 19.268C12.9908 19.2606 12.9924 19.2532 12.994 19.2457C13.0402 19.0305 13.0895 18.8218 13.1422 18.6194C13.1754 18.492 13.2098 18.3672 13.2457 18.2448C13.2673 18.1711 13.2894 18.0983 13.3119 18.0264L13.3136 18.0211C14.1456 15.3757 15.6602 13.9266 18.333 13.1441ZM12.4691 16.0784C12.8634 15.2652 13.3577 14.543 13.979 13.9157C14.6151 13.2735 15.348 12.7673 16.1719 12.3665C15.3185 11.9498 14.5695 11.4214 13.9259 10.754C13.3272 10.1332 12.8522 9.42538 12.4718 8.63856C12.0772 9.45378 11.5825 10.178 10.9606 10.8072C10.3252 11.45 9.59311 11.9573 8.76995 12.359C9.61768 12.7703 10.3626 13.2913 11.0033 13.9507C11.6085 14.5735 12.087 15.2853 12.4691 16.0784ZM16.762 5.64734C16.6886 5.64734 16.6273 5.69907 16.6126 5.76801C16.6104 5.77832 16.6093 5.78902 16.6093 5.79999H16.6126C16.6126 5.88434 16.6746 5.94012 16.7576 5.95599L16.781 5.96164C16.7919 5.96422 16.8028 5.96682 16.8129 5.96942C16.8155 5.97012 16.8182 5.97082 16.8209 5.97153C17.2531 6.08499 17.622 6.25545 17.9252 6.4803C17.9968 6.53341 18.0647 6.58956 18.1289 6.64871C18.1564 6.67407 18.1833 6.69998 18.2095 6.72644L18.2115 6.72848C18.2671 6.78486 18.3196 6.84373 18.3691 6.90506C18.6022 7.1944 18.7657 7.53851 18.8571 7.93467C18.8621 7.95649 18.867 7.97876 18.8716 8.00089C18.8729 8.00737 18.8743 8.01385 18.8756 8.02036C18.8793 8.03915 18.8829 8.05806 18.8864 8.07709C18.8864 8.15046 18.9381 8.21174 19.0071 8.22644C19.0174 8.22864 19.0281 8.2298 19.0391 8.2298V8.22644C19.1234 8.22644 19.1792 8.16443 19.1951 8.08148L19.2007 8.05806C19.2033 8.04718 19.2059 8.03621 19.2085 8.02618C19.2092 8.0235 19.2099 8.02082 19.2106 8.01814C19.3241 7.58596 19.4945 7.21702 19.7194 6.91389C19.7725 6.84229 19.8286 6.77436 19.8878 6.71014C19.9138 6.6819 19.9404 6.65437 19.9676 6.62756C20.0239 6.57193 20.0828 6.5194 20.1441 6.46999C20.4335 6.23688 20.7776 6.0733 21.1737 5.98195C21.1956 5.97693 21.2178 5.97205 21.24 5.96746C21.2464 5.96611 21.2529 5.96479 21.2594 5.96349C21.2782 5.95971 21.2971 5.9561 21.3162 5.95264C21.4005 5.95264 21.4655 5.88428 21.4655 5.79999C21.4655 5.71564 21.4035 5.65985 21.3206 5.64398L21.2971 5.63834C21.2863 5.63576 21.2753 5.63315 21.2653 5.63055C21.2626 5.62985 21.2599 5.62915 21.2572 5.62845C20.8247 5.51491 20.4556 5.34429 20.1524 5.11922C20.081 5.06624 20.0133 5.01025 19.9492 4.95127C19.9217 4.92591 19.8948 4.9 19.8686 4.87354L19.8666 4.8715C19.811 4.81511 19.7585 4.75625 19.7091 4.69492C19.476 4.40558 19.3124 4.06146 19.221 3.66531C19.216 3.64349 19.2111 3.62122 19.2065 3.59908C19.2052 3.59261 19.2039 3.58612 19.2026 3.57962C19.1988 3.56082 19.1952 3.54191 19.1917 3.52289C19.1917 3.44951 19.14 3.38824 19.071 3.37354C19.0607 3.37134 19.05 3.37018 19.0391 3.37018V3.37354C18.9547 3.37354 18.8989 3.43555 18.8831 3.51849L18.8774 3.54191C18.8748 3.55279 18.8722 3.56377 18.8696 3.57379C18.8689 3.57648 18.8682 3.57916 18.8675 3.58184C18.7541 4.01402 18.5836 4.38296 18.3587 4.68609C18.3056 4.75769 18.2495 4.82561 18.1903 4.88984C18.165 4.91737 18.1391 4.94423 18.1126 4.97041L18.1106 4.97241C18.0542 5.02805 17.9953 5.08058 17.934 5.12999C17.6447 5.36309 17.3005 5.52667 16.9044 5.61802C16.8826 5.62305 16.8603 5.62793 16.8382 5.63252C16.8317 5.63386 16.8252 5.63518 16.8187 5.63649C16.7999 5.64026 16.781 5.64388 16.762 5.64734ZM6.84832 19.6608C6.85129 19.658 6.85427 19.6553 6.85726 19.6526C7.0985 19.4332 7.39845 19.2773 7.77853 19.1827C7.8241 19.1714 7.87081 19.1609 7.91872 19.1513C8.03908 19.1513 8.13667 19.0537 8.13667 18.9334C8.13667 18.813 8.03908 18.7154 7.91872 18.7154C7.88732 18.706 7.85634 18.6964 7.82577 18.6866C7.44044 18.5633 7.12038 18.4097 6.86336 18.2052C6.85139 18.1957 6.83955 18.1861 6.82786 18.1763C6.76311 18.1224 6.70255 18.065 6.64612 18.0038C6.64339 18.0008 6.64066 17.9978 6.63794 17.9948C6.4185 17.7536 6.26264 17.4536 6.16805 17.0736C6.15671 17.028 6.14625 16.9813 6.13667 16.9334C6.13667 16.813 6.03908 16.7154 5.91872 16.7154C5.79835 16.7154 5.70076 16.813 5.70076 16.9334C5.69134 16.9648 5.68174 16.9957 5.67196 17.0263C5.5486 17.4116 5.39507 17.7317 5.19059 17.9887C5.18106 18.0007 5.17143 18.0125 5.16169 18.0242C5.10773 18.089 5.05032 18.1495 4.98911 18.206C4.98614 18.2087 4.98316 18.2114 4.98017 18.2141C4.73893 18.4336 4.43899 18.5895 4.0589 18.684C4.01333 18.6954 3.96662 18.7058 3.91872 18.7154C3.79835 18.7154 3.70076 18.813 3.70076 18.9334C3.70076 19.0537 3.79835 19.1513 3.91872 19.1513C3.95011 19.1607 3.98109 19.1703 4.01166 19.1801C4.39699 19.3035 4.71705 19.457 4.97407 19.6615C4.98604 19.671 4.99788 19.6807 5.00957 19.6904C5.07432 19.7444 5.13489 19.8018 5.19131 19.863C5.19405 19.8659 5.19677 19.8689 5.19949 19.8719C5.41892 20.1132 5.5748 20.4131 5.66938 20.7932C5.68072 20.8388 5.69118 20.8855 5.70076 20.9334C5.70076 21.0537 5.79835 21.1513 5.91872 21.1513C6.03908 21.1513 6.13667 21.0537 6.13667 20.9334C6.14609 20.902 6.15569 20.871 6.16547 20.8404C6.28883 20.4551 6.44236 20.135 6.64685 19.878C6.65637 19.866 6.666 19.8542 6.67575 19.8425C6.7297 19.7778 6.78711 19.7172 6.84832 19.6608Z" fill="#191E26"></path><path d="M9.60004 5.61292C7.90924 5.46588 6.97906 4.87433 6.48364 3.70001C6.30511 3.27692 6.1795 2.78272 6.10004 2.20001C6.10004 2.09998 6.00006 2 5.90002 2C5.79999 2 5.70001 2.09998 5.70001 2.20001C5.62054 2.78272 5.49493 3.27692 5.31641 3.70001C4.82098 4.87433 3.89081 5.46588 2.20001 5.61292C2.10004 5.61292 2 5.71289 2 5.81293C2 5.9129 2.10004 6.01294 2.20001 6.01294C4.29999 6.4129 5.40002 7.20001 5.70007 9.40002C5.70007 9.5 5.80005 9.59998 5.90002 9.59998C6 9.59998 6.09998 9.5 6.09998 9.40002C6.40002 7.20001 7.50006 6.4129 9.60004 6.01294C9.70001 6.01294 9.80005 5.9129 9.80005 5.81293C9.80005 5.71289 9.70001 5.61292 9.60004 5.61292Z" fill="#191E26"></path></svg>