<svg width="24" height="24" viewBox="0 0 24 24" fill="none" xmlns="http://www.w3.org/2000/svg">
  <path fill-rule="evenodd" clip-rule="evenodd" d="M13.8373 5.78933C13.7948 5.84103 13.7504 5.9376 13.7504 6.06942V7.6908C13.7504 8.0494 13.4966 8.35783 13.1447 8.4268C10.4661 8.95177 8.44636 10.5881 6.96046 12.4513C6.14424 13.4748 5.50066 14.5529 5.00912 15.5218C5.61033 15.0518 6.30262 14.5766 7.07007 14.1583C8.74345 13.2463 10.8176 12.5822 13.099 12.8848C13.4719 12.9342 13.7504 13.2522 13.7504 13.6283V15.9304C13.7504 16.0166 13.7705 16.0939 13.8001 16.1525C13.8223 16.1965 13.845 16.2216 13.8601 16.2347C13.8684 16.2419 13.8749 16.246 13.879 16.2481C13.8808 16.2471 13.883 16.2458 13.8855 16.2441L20.1171 11.3221L20.1323 11.3104C20.1494 11.2976 20.1763 11.2704 20.2007 11.222C20.3128 11.0004 20.2171 10.7529 20.1323 10.6894L20.1171 10.6777L13.8857 5.75594C13.8829 5.75403 13.8805 5.75265 13.8787 5.75167C13.8707 5.75583 13.8565 5.76595 13.8373 5.78933ZM12.2504 6.06942C12.2504 5.2092 12.8484 4.25 13.879 4.25C14.2144 4.25 14.5297 4.36408 14.7891 4.55837L14.8043 4.57008L21.0404 9.49549C21.7746 10.0529 21.9344 11.1175 21.5394 11.8988C21.4213 12.1323 21.2534 12.3425 21.0404 12.5043L14.8043 17.4298L14.7891 17.4415C14.397 17.7352 13.9152 17.8211 13.4667 17.6911C13.0257 17.5633 12.6714 17.2446 12.4614 16.8293C12.3206 16.5508 12.2504 16.2401 12.2504 15.9304V14.3162C10.6273 14.2534 9.1084 14.7557 7.78791 15.4754C6.29141 16.291 5.09322 17.3631 4.35886 18.1116C3.9899 18.4877 3.47406 18.4793 3.12687 18.2802C2.76913 18.0751 2.4901 17.6019 2.68965 17.0715C3.18464 15.7559 4.1655 13.5502 5.78773 11.516C7.30519 9.61328 9.41724 7.82074 12.2504 7.09192V6.06942Z" fill="#191E26"></path>
</svg>