<svg width="24" height="24" viewBox="0 0 24 24" fill="none" xmlns="http://www.w3.org/2000/svg"><path d="M10.5086 3.2223C11.0966 1.95168 12.9027 1.95168 13.4906 3.2223L15.3964 7.34106C15.5158 7.5992 15.7603 7.77718 16.0427 7.81153L20.546 8.35932C21.9319 8.52791 22.4892 10.2389 21.4683 11.1914L18.1397 14.297C17.9325 14.4903 17.8396 14.7768 17.8939 15.055L18.7667 19.5241C19.0347 20.8967 17.5744 21.9552 16.3533 21.2734L12.4001 19.0659C12.1512 18.9269 11.8481 18.9269 11.5992 19.0659L7.64594 21.2734C6.42485 21.9552 4.96453 20.8967 5.23259 19.5241L6.10534 15.055C6.15967 14.7768 6.06675 14.4903 5.85952 14.297L2.53093 11.1914C1.5101 10.2389 2.06735 8.52791 3.45329 8.35932L7.95656 7.81153C8.23892 7.77718 8.48342 7.5992 8.60286 7.34106L10.5086 3.2223Z" fill="#191E26"></path></svg>